<svg preserveAspectRatio="xMidYMid meet" data-bbox="-0.1 0 396.47 442.72" viewBox="-0.1 0 396.47 442.72" xmlns="http://www.w3.org/2000/svg" data-type="color" role="presentation" aria-hidden="true" aria-label="">
    <g>
        <path d="M231.9 0c11.87 3.21 21.18 10.14 28.55 19.79a40.3 40.3 0 0 1 8.22 28.74c-.19 2.26-.44 3.85 2.91 3.58a47.92 47.92 0 0 1 30.9 7.55c21 13.88 42.09 27.74 62.58 42.39 21 15 31.3 35.93 31.31 61.77v267.42c0 8.5-2.95 11.47-11.39 11.47H101.15c-8.23 0-11.26-3-11.26-11.16v-96.33c0-1.36.76-3.24-.68-4s-2.6.83-3.78 1.53c-7.19 4.25-14.26 8.72-21.55 12.79-3.27 1.83-4.58 4-4.55 7.85.17 25.77.09 51.55.08 77.33 0 9.3-2.72 12-12.16 12H10.96c-7.7-.04-10.9-3.15-10.96-10.67 0-14.25-.07-28.51 0-42.77 0-5.74 3.84-9.43 9.11-9.32 5.08.12 8.47 3.75 8.7 9.34.05 1.3 0 2.59 0 3.89 0 9.07.12 18.15-.06 27.22-.07 3.36 1 4.64 4.43 4.48a141 141 0 0 1 14.68 0c3.71.21 4.62-1.28 4.6-4.75-.12-23 .13-46.09-.16-69.13-.11-9.07 3.53-15.38 11.15-19.89 13.14-7.77 26.2-15.67 39.3-23.5 2.22-1.33 4.48-2.69 7.2-2.63 5 .11 8.66 4.23 8.69 9.92.08 12.39.14 24.77 0 37.16 0 3.65.73 4.64 4.32 3 5.24-2.37 10.64-4.4 16-6.43 2.33-.88 3.37-2.17 3.36-4.78-.1-16.13.07-32.26-.11-48.39-.11-9.27-3.78-16.86-12.34-21.25s-16.9-3.14-24.81 2.33c-11.72 8.1-23.61 16-35.37 24a16.05 16.05 0 0 1-9.69 3c-8.93-.13-17.86.08-26.78-.1-3.4-.07-4.71 1.08-4.44 4.48.22 2.87.05 5.76 0 8.64-.05 7.25-3.28 11.22-9.07 11.15-5.63-.08-8.79-4-8.81-11V216.49c0-15.79 7-27.62 20.38-35.65 3-1.81 2.06-2.46-.11-3.86-24.11-15.66-23.66-56.91-1.05-72.45 12.89-8.86 26.68-10.8 40.91-4.35 14.82 6.71 23.12 18.6 24.21 35 .49 7.32.44 14.67-2.24 22 2 .33 3.41-.47 4.81-1q23.59-8.4 47.18-16.84c4.09-1.48 8.2-2.74 12.62-2.3a4.11 4.11 0 0 0 4.58-2.39c1.93-3.82 5.06-6.58 8.43-9.11q25.71-19.35 51.4-38.75c3.8-2.86 3.68-2.7-.58-5-15.7-8.59-26.63-21.01-27.52-39.79A40.39 40.39 0 0 1 209.8 2.18c2.2-.79 4.36-1.45 6.55-2.18Zm11.25 424.83q65.22 0 130.45.07c3.71 0 5-1 5-4.84q-.18-72.78 0-145.57c0-3.6-1.14-4.67-4.69-4.66-25.35.13-50.69.09-76 0a9.74 9.74 0 0 0-6.35 2.13Q252.76 302.06 214 332a43.9 43.9 0 0 1-10.77 6.24c-30.23 12-60.4 24.18-90.66 36.1-3.7 1.46-4.94 3.34-4.86 7.29.26 12.53.09 25.06.1 37.58 0 5.59 0 5.6 5.78 5.6Zm64.49-207.92v-28.94c0-13.21-5-23.61-16.44-30.84-8.75-5.54-17.28-11.46-25.76-17.43-2.94-2.07-5.44-2.21-8.76-.83-24.06 10-48.2 19.8-72.31 29.67-4.16 1.7-8.4 3.07-13 2.73a4.3 4.3 0 0 0-4.6 2.41c-2.28 4.12-5.79 7.09-9.63 9.73-22.08 15.15-44.11 30.38-66.25 45.45-2.81 1.91-4.09 4-4 7.41.27 6.33.18 12.67 0 19-.07 3.25.91 3.79 3.72 2.24a35.6 35.6 0 0 1 17.9-4.22c23.08.43 40.44 18.16 40.61 41.23.1 13.68.13 27.36 0 41-.05 3.85.92 4.37 4.38 2.95 14.24-5.86 28.57-11.53 42.89-17.19a27.4 27.4 0 0 0 6.64-4C226.89 299 251 280.85 274.37 262c8.75-7.05 17.46-11.82 28.9-10 3.42.55 4.49-1 4.43-4.41-.17-10.22-.06-20.45-.06-30.68m-289.73 32v32c0 2.1-.08 4.15 2.93 4.19 15.4.23 31.27 2.5 43.61-10.29a5.2 5.2 0 0 1 1.42-1c2.68-1.32 3.37-3.46 3.34-6.36-.14-12.52.2-25.05-.17-37.56-.18-5.91 2.06-9.63 6.83-12.83 16.6-11.15 33-22.57 49.5-33.89 7.59-5.22 15.15-10.48 22.76-15.67 3.2-2.19 4.22-5.2 2.78-8.63-1.52-3.63-4.84-3.62-8.12-2.94a29 29 0 0 0-3.7 1.19l-35.35 12.61c-23.16 8.27-46.35 16.44-69.48 24.81-11.13 4-16.21 11.42-16.32 23.28-.1 10.36-.02 20.72-.03 31.08Zm257.58-178.7a34.8 34.8 0 0 0-21.3 7.19q-42.1 31.66-84.19 63.38c-2.92 2.21-4.53 4.88-2.81 8.57 1.51 3.23 4.65 4.21 8.89 2.85 1-.3 1.89-.71 2.82-1.09 25.83-10.59 51.7-21.1 77.47-31.83 4.92-2 9-1.69 13.34 1.34 9.08 6.36 18.38 12.4 27.49 18.71 2.23 1.54 3.76 1.68 6-.16q17.69-14.53 35.66-28.7c2.49-2 2.28-3-.21-4.66C323.93 96 309.29 86 294.57 76.18a33.7 33.7 0 0 0-19.08-5.97m103 132.79c-.48-13.51.92-30.08-.75-46.59-1.41-13.9-7.61-25.47-17.58-35.14-1.75-1.69-3.24-2-5.22-.36q-18.79 15.21-37.67 30.32c-1.91 1.52-2.38 2.94-.83 5.07 6.89 9.45 9.31 20.12 9.16 31.72-.26 19.86 0 39.73-.13 59.59 0 3.34.92 4.78 4.41 4.49a43.6 43.6 0 0 1 8.62 0c4.49.53 5.57-1.28 5.52-5.59-.21-20.15-.08-40.3-.1-60.45 0-2.95.21-5.81 2.47-8 2.69-2.61 5.88-3.67 9.49-2.26 4.07 1.59 5.95 4.71 5.94 9.09v55.28c0 12 0 11.9 12 11.94 3.53 0 4.77-1 4.72-4.64-.15-13.85-.05-27.67-.05-44.47m-151-135.69c12.86.09 23-9.66 23.19-22.29.19-13.21-13.09-26.88-26.41-27.18a23.06 23.06 0 0 0-23.19 22.5c-.16 13.39 12.99 26.83 26.38 26.93ZM43.72 115c-13.76-.07-23.15 10-23.23 25-.08 15.44 9 25.75 22.85 25.82s23.16-10 23.23-25c.08-15.47-9.04-25.76-22.85-25.82" fill="#ffffff" data-color="1"></path>
        <path d="M.08 354.94a8.79 8.79 0 0 1 9.3-8.68A8.89 8.89 0 0 1 8.55 364a8.79 8.79 0 0 1-8.47-9.06" fill="#ffffff" data-color="1"></path>
        <path d="M354.89 334.36c0 6.62.07 13.24 0 19.85-.08 6.12-3.66 9.9-9.07 9.82-5.23-.08-8.69-3.79-8.76-9.69-.09-8.34 0-16.69 0-25 0-6.87 0-6.89-6.72-6.89a22.1 22.1 0 0 1-6.83-.72 8.8 8.8 0 0 1-6.6-8.18c-.33-3.95 2.14-8 6.23-8.74a70.4 70.4 0 0 1 25.69 0c4.28.82 6.1 4.48 6.1 8.84Z" fill="#ffffff" data-color="1"></path>
        <path d="M346.06 397.73a8.89 8.89 0 1 1 8.79-8.77 8.76 8.76 0 0 1-8.79 8.77" fill="#ffffff" data-color="1"></path>
    </g>
</svg>