<svg preserveAspectRatio="xMidYMid meet" data-bbox="-0.01 0.001 397.87 338.906" viewBox="-0.01 0.001 397.87 338.906" xmlns="http://www.w3.org/2000/svg" data-type="color" role="presentation" aria-hidden="true" aria-label="">
    <g>
        <path d="M397.86 295.24c-2.36 3-5.55 4-9.26 3.91-4.4-.1-8.8.06-13.2 0-2.54-.06-3.53.83-3.88 3.51-2.48 19.22-15.74 33-34 35.66a39.74 39.74 0 0 1-44.65-31.34c-1.63-7.81-1.63-7.81-9.49-7.81H159.11c-6.09 0-6.09 0-7.12 6.13a40.16 40.16 0 0 1-38.6 33.6c-20.31.38-38.32-15.47-40.23-35.72-.31-3.33-1.55-4.1-4.54-4.05-8.67.12-17.34.08-26 0C31.48 299 26.42 294 26.4 283c0-10.76 0-10.76-10.74-10.76-3.11 0-6.22.09-9.32-.05C2.47 272 0 269.39 0 265.74a6.08 6.08 0 0 1 6.3-6.43q30.09-.12 60.18 0a6.08 6.08 0 0 1 6.21 6.52 6.2 6.2 0 0 1-6.45 6.32c-7.37.13-14.75.18-22.13 0-3.19-.08-4.36 1-4.29 4.21.24 11.09-1.16 9.16 9.23 9.3 7.37.1 14.75-.08 22.13.06 2.65.06 4.09-.76 5.35-3.27 7.31-14.66 19-23 35.67-23.15 17-.18 29.07 7.92 36.56 22.95 1.3 2.6 2.82 3.48 5.65 3.48q60-.12 120 0c3.34 0 4.52-.89 4.47-4.37-.18-13.07-.07-26.14-.07-39.21a24 24 0 0 1 .12-3.88 6.21 6.21 0 0 1 6-5.62 5.93 5.93 0 0 1 6.67 4.72 24.7 24.7 0 0 1 .62 6.14c.05 12.82 0 25.63.06 38.44 0 1.17-.57 3 1.18 3.24 1.42.22 1.56-1.48 2.05-2.47 7.49-15.13 19.49-23.51 36.66-23.42 16.84.08 28.61 8.49 36 23.32 1.18 2.39 2.54 3.1 5 3.11 12 .08 12 .14 12-11.91 0-3.63-.16-7.26.05-10.87.17-3.07-1-4.22-4-4-6.34.5-12-1-16.71-5.65a19.5 19.5 0 0 1-5.74-11.18 78 78 0 0 1-.38-15.49c.22-4.87 2.79-7.31 7.67-7.51s9.58-.14 14.37 0c2.83 0 3.13-1 1.8-3.22-3.54-5.82-8.65-9.57-15.46-9.64-23.68-.24-47.36-.1-71.05-.16-2.5 0-3.5 1-3.47 3.47a18.8 18.8 0 0 1-.54 4.61c-.82 3.32-3.17 5-6.49 5.05a6.39 6.39 0 0 1-6.26-5.8 32 32 0 0 1-.12-4.26v-104.1c0-5.31 0-5.33-5.33-5.33H45.54c-5.66 0-5.67 0-5.67 5.86v102.5c0 2.21.13 4.44-.65 6.54-1.1 3-3.35 4.7-6.53 4.49a6.23 6.23 0 0 1-6.13-5.49 19 19 0 0 1-.15-3.48V101.44c0-9.77 5.29-15.14 15.15-15.16 25.49-.06 51 0 76.49 0h4.45c-1-1.6-2.43-1.66-3.55-2.12q-21.24-8.55-42.51-17A19 19 0 0 1 72.3 65a6.13 6.13 0 0 1-2.14-7.62c1.08-2.86 3.36-4.12 6.43-4A13 13 0 0 1 81 54.65c11.65 4.65 23.3 9.31 35.14 13.69-4.3-3.06-8.63-6.07-12.87-9.21-4.43-3.32-8.83-6.75-12.35-11.13-10.55-13.07-8.18-32.26 5.13-42 13.78-10.1 32.57-7 42 7.19 6.27 9.45 10 20.11 14 30.67 2.39 6.41 4.6 12.89 7.23 20.29.72-2 1.17-3.27 1.59-4.51 5-14.7 10-29.41 17.48-43.11C188.55-2.31 212-5.63 226.31 9.6a29.23 29.23 0 0 1-.57 40.4c-5.74 6-12.64 10.71-19.45 15.42a8.1 8.1 0 0 0-2.81 2.72l22.19-8.86c4.32-1.72 8.62-3.52 13-5.15 4.64-1.74 8.19-.41 9.7 3.47 1.41 3.62-.25 7-4.7 8.81-14.75 6-29.54 11.85-44.31 17.79-1.14.46-2.48.63-3.66 2.06h79.79c11.53 0 16.58 5 16.75 16.5.14 10 .14 10 10.17 10 12.42.06 24.88-.41 37.25.44 15.55 1.06 24.74 11.23 25.54 26.91.23 4.48.74 9.19-4 12.21-1.2.77-.52 2.19-.25 3.26q4.27 17.32 8.66 34.62c.34 1.34.59 2.71 2.4 3.15 13.8 3.36 21.94 12.43 25.82 25.76Zm-73.31-102.68c9.43 0 18.86-.08 28.29.05 2.94 0 3.54-.93 2.83-3.65-2.82-10.87-5.6-21.75-8.17-32.68-.68-2.86-2-3.69-4.83-3.67-15.37.1-30.75.14-46.12 0-3.51 0-4.42 1.27-4.37 4.55q.22 15.5 0 31c-.06 3.36 1.05 4.55 4.46 4.49 9.3-.2 18.6-.08 27.91-.09M86.42 298.48c-.2 14.89 11.14 26.71 25.77 26.87 14.85.16 26.72-11.23 26.91-25.8a26.58 26.58 0 0 0-26-27.26c-14.27-.38-26.5 11.63-26.68 26.19m271.77.23c-.06-14.59-12-26.56-26.43-26.42a26.55 26.55 0 0 0-26.23 26.64 26 26 0 0 0 26.63 26.42c14.72-.08 26.09-11.72 26.03-26.64M147.61 72c-4.48-14-9-26.82-14.38-39.38a67.3 67.3 0 0 0-6-11.71c-3.73-5.49-9-8.07-15.61-7.29-6 .7-10.25 4.07-12.72 9.52-3.18 7-1.09 14.3 6 20.26 12.92 10.83 27.34 19.43 42.71 28.6m23.6-1.53 1 .7c3.51-2.11 7.07-4.17 10.54-6.36 11.24-7.11 22.65-14 32.48-23.1 5.16-4.78 6.72-10.67 4.66-17.29-1.94-6.26-6.55-9.9-13-10.76-7.29-1-12.83 2.05-16.5 8.41-5.39 9.45-9.04 19.69-12.77 29.93-2.24 6.08-4.28 12.29-6.41 18.47m150.86 69.18c8.79 0 17.58-.05 26.37 0 2.85 0 3.69-.88 2.81-3.72-1.88-6.05-6.76-9.71-13.8-9.75-12-.07-24-.12-36.05 0-10.34.1-9-2-9.2 9.68 0 2.87 1.06 3.84 3.9 3.8 8.65-.08 17.31 0 25.97-.01M385.14 239c0-6.41 0-6.41-6.13-6.42-7.32 0-7.32 0-7.32 4.46 0 6.41 2.13 8.54 8.59 8.58 4.86-.01 4.86-.01 4.86-6.62" fill="#ffffff" data-color="1"></path>
        <path d="M129.71 139.67c3.17.19 7.24-.57 11.16.43 8.81 2.26 15 7.51 17.37 16.49 2.29 8.69.28 16.52-6.18 22.77-2.44 2.37-2.49 3.92-.57 6.43 2.27 3 4.28 6.16 6.25 9.35 2.21 3.59 1.5 7.54-1.56 9.64s-6.87 1.34-9.42-2.27c-3.14-4.43-6.06-9-9.09-13.52-1.78-2.63-7.63-4.15-10.3-2.74-1.31.68-1.17 1.9-1.19 3-.05 3.11.08 6.22-.08 9.31-.23 4.41-3.26 7.51-6.95 7.35s-6.43-3.16-6.45-7.42q-.12-25.8 0-51.6c0-4.73 2.57-7.11 7.26-7.24 2.98-.05 5.95.02 9.75.02m-3.55 22.88v6.95c0 1.83.69 3 2.68 3a75 75 0 0 0 9.25-.25c4.82-.68 8.38-5.73 7.76-10.45-.89-6.73-6.58-9.94-16.64-9.08-5.58.48-2.08 5-3 7.54a6.8 6.8 0 0 0-.05 2.29" fill="#ffffff" data-color="1"></path>
        <path d="M165.64 172.8v-23.65c.06-7.3 2.29-9.48 9.5-9.49h22.88c4.77 0 7.47 2.45 7.47 6.49s-2.66 6.41-7.48 6.47c-5.17.06-10.34.1-15.51 0-2.47 0-3.49.81-3.44 3.36.25 12.26-1.61 9.83 9.47 10.11a36 36 0 0 1 4.64.14 6.32 6.32 0 0 1 5.78 6.3c.17 3.32-1.7 5.63-5 6.52-3.68 1-7.47.46-11.2.47-2.55 0-3.78.78-3.73 3.57.23 11.31-1.35 9.25 9 9.46 3.49.07 7-.09 10.47.06 4.36.2 7 2.83 7 6.72 0 3.73-2.46 6.49-6.68 6.6-8.78.21-17.58.23-26.36 0-4.41-.12-6.69-3.1-6.77-8.31-.13-8.27 0-16.55 0-24.82Z" fill="#ffffff" data-color="1"></path>
        <path d="M232.26 139.67c4.28 0 8.55-.08 12.82 0s7 2.81 7 6.67c-.06 3.66-2.74 6.17-7 6.25-5.17.1-10.35.18-15.52 0-3.13-.12-4.29 1.1-3.93 4.08a9 9 0 0 1 0 1.16c0 7.4 0 7.38 7.05 8.34 3.51.48 5.78 2.48 6 6s-1.61 5.87-5.05 6.87c-.5.14-1 .2-1.52.34-2 .59-5.12-1-6 1.35-1.24 3.22-.67 6.9-.24 10.35.22 1.68 2 1.41 3.21 1.42h14.75c5.26.09 8.23 2.6 8.2 6.77s-3.06 6.64-8.32 6.69c-7.77.07-15.53.08-23.3 0-5.46-.06-8.18-2.62-8.22-8.13q-.18-25.24 0-50.48c0-5.37 2.65-7.7 8-7.76 4.05.04 8.06.07 12.07.08" fill="#ffffff" data-color="1"></path>
        <path d="M66.1 172.57v-24c0-6.64 2.28-8.85 8.84-8.87h23.27c4.9 0 7.9 2.67 7.78 6.67s-3 6.24-7.73 6.29-9.82.12-14.73 0c-2.72-.08-4 .66-4 3.67.26 11.83-1.45 9.55 9.42 9.81h3.49c3.94.28 6.57 2.67 6.78 6.13.23 3.7-2.12 6.6-6.21 7.07a54.4 54.4 0 0 1-9.29.19c-3.27-.18-4.33 1.16-4.2 4.31.19 4.65.1 9.31 0 14-.08 4.81-2.72 8-6.55 8.15s-6.87-3.2-6.91-8.17c-.01-8.44.05-16.82.04-25.25" fill="#ffffff" data-color="1"></path>
        <path d="M212.32 272.22h-45.39c-4.57 0-7.35-2.29-7.64-6-.3-3.92 2.61-6.88 7.06-6.92 9.31-.07 18.62 0 27.93 0h62.84c2.85 0 5.47.3 7.15 2.93a6.25 6.25 0 0 1 .27 6.64 6.32 6.32 0 0 1-6.06 3.42h-22.11Z" fill="#ffffff" data-color="1"></path>
        <path d="M59.48 245.78H22.63a24 24 0 0 1-3.48-.1c-3.5-.55-5.64-2.58-5.88-6.16-.22-3.42 1.6-5.68 4.82-6.61a18.4 18.4 0 0 1 5-.58h72.92c6.65 0 10.15 2.53 10 7.08-.12 4.39-3.26 6.39-10.06 6.4Z" fill="#ffffff" data-color="1"></path>
        <path d="M126.07 299.09a13.77 13.77 0 0 1-13.61 13.18 13.61 13.61 0 0 1-13-13.72 13.23 13.23 0 0 1 13.34-12.85 13.42 13.42 0 0 1 13.27 13.39" fill="#ffffff" data-color="1"></path>
        <path d="M332 285.7a13.36 13.36 0 0 1 13.22 13.43c-.09 7-6.33 13.19-13.23 13.14-7.21-.06-13.5-6.31-13.44-13.36A13.4 13.4 0 0 1 332 285.7" fill="#ffffff" data-color="1"></path>
    </g>
</svg>