<svg preserveAspectRatio="xMidYMid meet" data-bbox="-0.001 -0.002 397.851 393.221" viewBox="-0.001 -0.002 397.851 393.221" xmlns="http://www.w3.org/2000/svg" data-type="color" role="presentation" aria-hidden="true" aria-label="">
    <g>
        <path d="M199 393.19H12.28a32.4 32.4 0 0 1-5.75-.27c-4.19-.76-6.72-3.82-6.52-7.71.22-4.21 2.66-6.49 6.58-7.21a18.1 18.1 0 0 1 5.3-.21c4 .45 5-1.35 5-5.13q-.13-92 0-184a8.63 8.63 0 0 0-2.35-6.38C7.7 174.88 4.81 166.1 4.21 156c-.89-15 2.05-28.77 8.2-42.51C22.93 90 32.2 66 42.16 42.2c1.28-3.05.82-4.59-1.76-6.63a19.54 19.54 0 0 1-6.44-22C36.41 6.16 43.76.65 52.08.06c1-.08 2.07-.06 3.1-.06h287.43c10.35 0 18 4.77 21.13 13.1a19.41 19.41 0 0 1-6.51 22.66c-2.51 2-2.73 3.5-1.57 6.3 12 28.84 23.88 57.73 35.84 86.59a23.6 23.6 0 0 1 2 10.34c-.38 8.27.77 16.6-.73 24.82a35.7 35.7 0 0 1-9.3 18.37 8.44 8.44 0 0 0-2.45 6.34q.12 17.57 0 35.11c0 5.07-2.4 8.11-6.48 8.68-4.31.6-7.85-2.19-8.4-7.12-.95-8.41-.26-16.87-.39-25.31-.09-5.94 0-5.76-6-5.06C346.35 196.39 335 192.1 326 182c-2-2.21-2.7-2-4.6 0-16.32 17.15-40.61 17.44-57.1.65-2.33-2.38-3.46-2.47-5.84 0-15.79 16.42-40.3 16.57-56.13.27-2.9-3-4.23-2.51-6.86.18-15.69 16-40.25 15.91-55.83-.3-2.53-2.64-3.73-2.47-6.16 0-16.19 16.57-40.79 16.27-56.79-.66-2-2.13-2.81-2.28-4.91 0-9.49 10.32-21.29 14.6-35.2 12.22-3.21-.54-4.51-.15-4.51 3.53q.13 87.56 0 175.1c0 3.79 1.52 4.84 5 4.76 7.83-.18 15.67-.05 23.51-.06 5.91 0 5.93 0 5.93-5.84v-99.1c0-29.67 23.63-52.41 53.31-51.49 25 .78 47.18 23.08 47.38 48.13.23 28.59.08 57.18.06 85.77 0 5.8-2.76 8.91-7.57 8.82-4.62-.1-7.2-3.13-7.21-8.74v-79.11a54.8 54.8 0 0 0-1.6-13.63c-4.28-16.85-19.83-27.4-37.6-25.59s-31 15.35-31.18 32.95c-.35 34.52-.12 69-.22 103.55 0 3.34 1.3 4.33 4.48 4.32q81.39-.09 162.79 0c3.48 0 4.72-1.16 4.57-4.64-.42-9.7 1.94-8.91-9.07-10.18a142 142 0 0 1-22.54-4.68c-4.21-1.19-6.33-4.05-6.56-8.43-1-19.79 1.2-38.77 13.25-55.43 2.87-4 2-7.53-1-11.27a78.15 78.15 0 0 1-17.7-45.1c-.36-5.85 1.73-8.45 7.5-9.58 6.81-1.34 13.64-2.59 20.46-3.86 2.51-.46 4.21-1.26 4.35-4.46.51-11.86 9-18.85 20.87-17.42a29.2 29.2 0 0 1 10.08 3.32c4.44 2.34 6.82 5.73 6.66 11-.2 6.63 0 6.62 6.78 7.93 5.66 1.09 11.31 2.22 17 3.32 7.58 1.46 9.74 4.32 8.8 12a83.67 83.67 0 0 1-17.71 43c-3.58 4.49-3.83 7.28-.5 12 11.53 16.39 13.76 34.93 12.83 54.24-.23 4.92-2.73 7.86-7.56 9.09a161.6 161.6 0 0 1-24.78 4.68c-1.92.17-4.82-.24-5.33 2.19-.79 3.71-1.07 7.66.3 11.35.43 1.18 2.06.93 3.23.93h88.71c3.61 0 4.05-1.94 4-4.81-.05-12.15 0-24.3 0-36.45v-76.44a47 47 0 0 1 .51-7.51c.68-4.19 3.82-6.66 7.71-6.42s6.66 3.05 7 7.26c.13 1.62.06 3.26.06 4.89v113.37c0 6.05 0 6 6.08 6.13a22.3 22.3 0 0 1 4.84.42c3.75.92 5.85 3.4 5.86 7.32 0 3.73-2.05 6-5.51 7.18-2.17.72-4.39.51-6.6.51Zm-.53-265.29h170.76c5.4 0 5.46-.09 3.37-5.14-10.77-26.14-21.6-52.26-32.28-78.44-1.27-3.13-3-4.19-6.3-4.13-9.31.16-18.63.14-27.94 0-6-.09-9.22-3.09-9.08-8 .14-4.65 3.37-7.31 9.22-7.35 9.46-.07 18.92 0 28.39 0 3.4 0 6.8 0 10.19-.06 3-.08 4.72-1.64 4.76-4.69s-1.93-4.43-4.83-4.55H56.89a26 26 0 0 0-5.3.29c-2.34.49-3.32 2.29-3.31 4.62a4 4 0 0 0 3.63 4.31 21 21 0 0 0 3.54.13h216.44a29 29 0 0 1 4.86.18c3.78.63 6.25 2.91 6.54 6.77.3 4-1.81 6.88-5.7 7.92a25.8 25.8 0 0 1-6.59.54q-103.11 0-206.23-.06c-4 0-6 1.1-7.58 4.94-10.38 25.66-21 51.21-31.59 76.79-2.47 6-2.45 6 3.9 6Zm64.9 220.81a127 127 0 0 0 24.88-3c2.58-.58 3.73-1.82 3.73-4.55 0-13.1-2.1-25.52-9.75-36.68-8-11.67-7.47-20 1.09-31.2a72.4 72.4 0 0 0 12.8-26.6c.77-3 .2-4.64-3.21-5.13-5-.71-9.87-1.82-14.8-2.77-12.78-2.44-12.78-2.44-13-15.71a9 9 0 0 1 0-.88c.19-2.75-.91-4.13-3.83-4.08-2.74.06-3.61 1.45-3.53 3.94.07 1.93 0 3.85 0 5.78-.08 6.39-1.94 8.71-8.29 10s-12.44 2.53-18.7 3.55c-3.74.61-5.29 1.75-4.07 6a76.4 76.4 0 0 0 13.38 26.81c7.54 9.59 8.27 18.73 1.29 28.58-8 11.29-10.27 24-11.08 37.3-.21 3.41.87 5 4.4 5.72a142 142 0 0 0 28.7 2.92ZM230 143.33h-19.92c-2.52 0-3.88.84-3.77 3.6.17 4.42-.14 8.83.66 13.25 1.94 10.81 10.58 18.84 21.12 19.38 12.08.62 21.69-6.12 24.72-17.18 1.32-4.81.55-9.7.9-14.54.26-3.59-1.34-4.64-4.69-4.55-6.32.14-12.66.03-19.02.04m-62.14 0c-6.49 0-13 .07-19.47 0-2.91 0-4.43.86-4.27 4.05.18 3.39-.06 6.81.1 10.2.55 11.7 10.07 21.38 21.5 22 12.94.69 23-7.12 25.13-19.35.76-4.27.47-8.54.69-12.81.16-3.17-1.26-4.14-4.21-4.09-6.47.07-12.96-.01-19.45-.01Zm-125.09 0c-6.48 0-13 .08-19.46 0-3-.05-4.3 1.06-4.16 4.15.18 4 0 8 .6 11.93 1.65 11.04 10.25 19.46 20.87 20.11 12.5.77 22.14-6 25.18-17.66 1.18-4.53.42-9.12.77-13.66.27-3.61-1-5.07-4.76-4.94-6.33.22-12.68.06-19.02.06Zm312.49 0c-6.64 0-13.27.05-19.91 0-2.69 0-4.17.83-4.05 3.81.15 3.83-.17 7.7.16 11.51a23.13 23.13 0 0 0 22.47 21c12.64.25 22.35-7.88 24.12-20a111 111 0 0 0 .62-12.37c.1-2.9-1.17-3.93-3.95-3.9-6.47 0-12.96-.06-19.44-.06Zm-249.65 0c-6.5 0-13 .08-19.49 0-3 0-4.34 1.08-4.21 4.16.15 3.54-.05 7.1.11 10.65.52 11.94 10.88 21.47 23.27 21.49s22.77-9.41 23.36-21.39c.16-3.39-.06-6.81.13-10.2s-1.07-4.83-4.58-4.73c-6.2.14-12.37.01-18.57.01Zm187 0c-6.2 0-12.41.13-18.6-.06-3.54-.1-5.24 1-5 4.8.22 3.09 0 6.21.1 9.31.42 12.64 10.6 22.26 23.46 22.22a22.93 22.93 0 0 0 23.25-22.44c.09-3.1-.12-6.22.08-9.31.23-3.57-1.38-4.65-4.73-4.57-6.17.15-12.35.04-18.54.04Z" fill="#ffffff" data-color="1"/>
        <path d="M88.91 314.11a61 61 0 0 1 .06-7.5 7.82 7.82 0 0 1 7.43-6.93 7.56 7.56 0 0 1 7.48 6.83 94.6 94.6 0 0 1 0 15.43c-.37 4.27-3.55 6.59-7.56 6.5s-7-2.81-7.41-7.26c-.21-2.34 0-4.71 0-7.07" fill="#ffffff" data-color="1"/>
        <path d="M103.76 55.85a21 21 0 0 1-.56 2.71c-6.23 18.51-12.44 37-18.77 55.51-1.67 4.88-5.55 7-9.51 5.75-4.51-1.48-6.47-5.61-4.75-10.76Q79.38 81.47 88.78 54c1.51-4.44 4.82-6.57 8.66-6a7.83 7.83 0 0 1 6.32 7.85" fill="#ffffff" data-color="1"/>
        <path d="M302.25 47.94a7.12 7.12 0 0 1 6.48 5.12q9.74 28.56 19.25 57.17a7.34 7.34 0 0 1-5 9.49c-3.85 1.28-7.76-.68-9.37-5.22-3.62-10.17-7-20.42-10.47-30.64-2.84-8.41-5.77-16.78-8.46-25.24-1.79-5.74 1.61-10.75 7.57-10.68" fill="#ffffff" data-color="1"/>
        <path d="M131.24 109.89c1.47-10 3.13-21.21 4.81-32.48q1.6-10.75 3.24-21.5c.87-5.76 4.35-8.76 9.14-7.91 4.49.79 6.63 4.61 5.8 10.25l-7.52 51.37c-.17 1.17-.42 2.33-.67 3.48-1 4.73-4.2 7.45-8.21 7.07-4.23-.39-6.73-3.77-6.59-10.28" fill="#ffffff" data-color="1"/>
        <path d="M266.61 109.72c.17 6.56-2.22 9.92-6.42 10.43s-7.57-2.25-8.36-7.32q-4.38-28-8.46-56.1a7.59 7.59 0 0 1 6.35-8.73c4.45-.65 8 2.18 8.77 7.37 1.6 10.22 3.06 20.46 4.59 30.69 1.24 8.33 2.49 16.66 3.53 23.66" fill="#ffffff" data-color="1"/>
        <path d="M206.34 84.26v27.08c0 5.41-2.83 8.77-7.21 8.89s-7.55-3.37-7.57-9q-.06-27.3 0-54.6c0-5.54 2.66-8.66 7.21-8.75 4.78-.1 7.55 3.06 7.58 8.83.02 9.2-.01 18.37-.01 27.55" fill="#ffffff" data-color="1"/>
    </g>
</svg>