<svg preserveAspectRatio="xMidYMid meet" data-bbox="-0.04 0.026 396.431 396.456" viewBox="-0.04 0.026 396.431 396.456" xmlns="http://www.w3.org/2000/svg" data-type="color" role="presentation" aria-hidden="true" aria-label="">
    <g>
        <path d="M396.39 228.32v80.38c0 13.71-8 21.7-21.77 21.73-4.81 0-9.62.09-14.43 0-2.48-.05-3.48.91-3.4 3.39.12 3.3.07 6.6 0 9.9a19.6 19.6 0 0 1-19.65 19.68q-21 .17-42 0c-3.17 0-4.41.85-4.32 4.19.2 8.24 0 16.49.1 24.74.05 2.93-.84 4.21-4 4.15-11.72-.24-9.65 1.28-9.82-9.37q-.17-9.9 0-19.79c.06-2.78-.78-4-3.74-3.9-10.61.21-8.76-1.1-8.9 8.58-.09 6.87-.11 13.74 0 20.61.05 2.84-1 3.91-3.84 3.86-12-.22-9.75 1.37-10-9.65-.11-6.46-.14-12.92 0-19.37.09-3.06-1-4.07-4-4-12.5.12-25-.06-37.51.11-3.56 0-4.85-1-4.74-4.67.34-10.75-1.23-9.07 9.25-9.14q22.89-.15 45.76 0c3.38 0 4.5-1 4.49-4.44q-.15-61 0-122a13.66 13.66 0 0 0-1.56-6.3q-26-52-51.93-104c-1.52-3.06-2.84-3.65-5.88-1.91-11.44 6.56-23 13-34.54 19.29-7.52 4.12-10.92 10.57-11 18.89s-.17 16.49 0 24.73c.09 3.48-.84 4.93-4.6 4.81-10.83-.33-9.08 1.21-9.21-9.18-.09-6.87.06-13.74 0-20.61-.2-14.18 6.23-24.41 18.44-31.22 11.75-6.56 23.4-13.35 35.36-19.51 6.89-3.55 12.44-8.48 17.6-14 5.5-5.91 11.93-9.17 20.2-7.5 1.84.37 2.84-.23 3.25-2.11.55-2.54 1.16-5.09 1.94-7.57a19.66 19.66 0 0 1 18.27-14.18c2.92-.12 4-1.16 3.71-3.94a14.6 14.6 0 0 1 0-3.3c.51-4.17-.67-6.92-4.68-9.3-7.33-4.35-10.32-14-7.81-22.1a20.27 20.27 0 0 1 38.63-.3 20.42 20.42 0 0 1-7.44 22.36c-1.62 1.18-4.41 1.45-4.68 3.68a75 75 0 0 0-.12 11.1c0 1.35 1.32 1.47 2.47 1.63 12.55 1.72 17.4 6.1 20.45 18.4.26 1.07.62 2.12.79 3.2.32 2.09 1.43 2.72 3.46 2.33a19 19 0 0 1 19.2 6.82c10 11.93 24.22 17.29 37 24.87 5.67 3.35 11.57 6.33 17.28 9.62 11.81 6.8 18 16.88 17.92 30.71-.06 26.56 0 53.08 0 79.6M343 255.16v-47.4c0-12.92.07-25.83 0-38.75 0-3 .94-4.39 4-4.08 1.09.11 2.2 0 3.3 0 6.49 0 6.5 0 6.5 6.5q0 57.08-.07 114.17c0 3.55.9 4.92 4.62 4.74 5.75-.28 11.54-.21 17.3 0 3.11.1 4-1.08 4-4.08-.07-45.62 0-91.23-.08-136.85 0-8.49-3.59-15-11.26-19.19-11.45-6.25-22.87-12.57-34.17-19.11-3.29-1.9-4.56-1.08-6.13 2.09q-25.75 51.87-51.76 103.6a14.55 14.55 0 0 0-1.64 6.7q.06 60.79 0 121.59c0 3.68 1.15 4.67 4.72 4.64 16.9-.16 33.8-.07 50.7-.08 8 0 10-2.05 10-10q.03-42.25-.03-84.49M234 127.44a17 17 0 0 0 .48 2q17.21 34.47 34.44 68.93c.46.91.65 2.44 2 2.23 1.17-.17 1.4-1.58 1.88-2.54q16.89-33.7 33.71-67.45c.33-.67 1.05-1.32.36-2.62-1.95 1.57-3.81 3.12-5.71 4.6-7.58 5.92-15.32 5-21.16-2.67-2.34-3.05-4.7-6.1-6.91-9.24-1.63-2.33-2.95-2.45-4.65 0-2.37 3.37-4.86 6.65-7.41 9.89-5.33 6.78-13 7.78-20 2.6-2.13-1.65-4.19-3.42-7.03-5.73m36.93-60.85h-8.24c-4.06.08-6.75 1.86-7.62 6.06a93 93 0 0 1-2.32 9.18c-.7 2.23-.12 3.55 1.81 4.78q7 4.41 13.71 9.16c1.89 1.33 3.35 1.22 5.17-.07a142 142 0 0 1 12-8c3.34-1.88 4.09-3.95 3-7.65-3.62-12.79-1.38-13.81-17.53-13.46Zm-38 23.86c-2.35 0-9.66 5.59-10.13 7.71-.25 1.17.54 1.79 1.26 2.39 8 6.67 16 13.31 24 20 1.4 1.18 2.27 1 3.3-.47 2.4-3.33 4.83-6.65 7.42-9.84 1.58-2 1.44-3.12-.74-4.52-7-4.52-13.94-9.22-20.89-13.85a6.86 6.86 0 0 0-4.25-1.42Zm75 0a7.2 7.2 0 0 0-2.17.7c-7.68 5-15.32 10.11-23 15.16-1.61 1-1.28 2.09-.29 3.38 2.59 3.37 5.16 6.75 7.63 10.21 1.1 1.55 2 1.89 3.59.54 7.85-6.63 15.78-13.16 23.66-19.75.8-.67 1.8-1.31 1.36-2.7-.71-2.35-7.78-7.59-10.8-7.52Zm61.8 213.58h-4.11c-10 .26-8.68-2.13-8.8 9.48 0 2.31.95 3.19 3.21 3.15 4.67-.08 9.33 0 14 0 6.2-.09 8.59-2.75 8.67-8.91 0-3-1.14-3.87-3.91-3.72-3.03.15-6.06.02-9.08.02Zm-99-290a6.48 6.48 0 0 0-6 6.18 6.11 6.11 0 0 0 12.21-.13 6.48 6.48 0 0 0-6.23-6.08Z" fill="#ffffff" data-color="1"></path>
        <path d="M95.78 396.4H21.59C8.15 396.38.07 388.3 0 374.89v-11.54c.09-10.25 6.08-17.89 16.19-20 3.05-.62 3.65-1.88 3.63-4.63q-.13-25.14 0-50.28c0-2.8-.69-4-3.69-4.6C6.12 281.81.1 274.13 0 263.9q-.08-13 0-26c.08-11.83 8.44-20.08 20.35-20.21 6-.07 6-.07 6-6.08 0-5.64.07-11.27 0-16.9 0-2.46 1-3.45 3.41-3.42 12.63.15 10.11-1.39 10.36 9.63.1 4.53.08 9.07 0 13.6 0 2.28.89 3.21 3.18 3.18 6.45-.07 12.91-.09 19.37 0 2.56 0 3.33-1.09 3.3-3.49-.09-6.18.07-12.36-.07-18.54-.07-3 .7-4.52 4.12-4.43 11.54.28 9.48-1.3 9.68 9.53.08 4.39.1 8.79 0 13.18-.07 2.52.63 3.79 3.45 3.76q16.08-.15 32.15 0c2.42 0 3.17-.93 3.67-3.26 2.26-10.6 9.7-16.51 20.5-16.55 8.65 0 17.31-.08 26 0a19.56 19.56 0 0 1 19.81 19.92q.12 29.67 0 59.34c0 14.75-8.58 26.9-22.51 31.67-3 1-4.1 2.45-3.92 5.57.25 4.25 0 8.52.06 12.78 0 2.25-.91 3.22-3.18 3.2-13.05-.1-10.66 1.43-10.44-9.81.13-6.69-.4-11.14-8.13-13.72-8.51-2.84-13.85-10.17-16.65-18.8-1-3.05-2.48-4-5.59-3.91-5.89.24-11.81.21-17.71 0-3.17-.11-4.36.83-4.33 4.18q.23 25.14 0 50.28c0 3.44 1.1 4.46 4.49 4.44 23.08-.12 46.15-.06 69.23-.06h6.19a19.63 19.63 0 0 1 19.06 19c.13 4.8.09 9.61 0 14.42-.15 11.3-8.58 19.84-19.87 19.88-25.37.17-50.79.11-76.2.12m.22-39.58H22.24c-5.88 0-8.27 2.46-8.42 8.24-.06 2.33 0 4.67 0 7 0 8.72 1.85 10.54 10.7 10.54h144.96c6.12-.13 8.51-2.45 8.64-8.47v-7.41c0-7.88-2.08-9.91-10.09-9.91ZM68.67 231.49H22.93c-6.83 0-9.08 2.32-9.12 9.21s-.05 14 0 21c0 6.33 2.41 8.73 8.76 8.74 30.62 0 61.25 0 91.88.08 3.53 0 4.42-1.25 4.36-4.55q-.24-15 0-30.08c.06-3.37-1-4.53-4.43-4.5-15.22.19-30.47.1-45.71.1m63.87 16.91v27.17a23.5 23.5 0 0 0 2.79 11.43 19.26 19.26 0 0 0 21.54 9c8.6-2 14.51-9.63 14.6-19.57.18-18.8.1-37.6 0-56.41 0-5.83-2.49-8.26-8.32-8.32q-11.12-.14-22.23 0c-6 .06-8.36 2.51-8.39 8.67-.03 9.36.01 18.7.01 28.03M79.18 314c0-8.52-.12-17 .07-25.56.07-3.27-1-4.28-4.28-4.24q-18.54.23-37.1 0c-3.13 0-4.38.78-4.35 4.16q.23 25.35 0 50.71c0 3.07 1 4.05 4.06 4 12.5-.13 25-.16 37.51 0 3.43.05 4.18-1.3 4.13-4.39-.14-8.19-.04-16.44-.04-24.68" fill="#ffffff" data-color="1"></path>
        <path d="M251.23 251a6.85 6.85 0 1 1-6.67-6.82 6.67 6.67 0 0 1 6.67 6.82" fill="#ffffff" data-color="1"></path>
        <path d="M244.56 277.13a6.84 6.84 0 1 1-7 6.46 6.66 6.66 0 0 1 7-6.46" fill="#ffffff" data-color="1"></path>
        <path d="M251.23 316.75a6.85 6.85 0 1 1-6.84-6.64 6.67 6.67 0 0 1 6.84 6.64" fill="#ffffff" data-color="1"></path>
    </g>
</svg>