<svg preserveAspectRatio="xMidYMid meet" data-bbox="0.021 0 396.388 409.11" viewBox="0.021 0 396.388 409.11" xmlns="http://www.w3.org/2000/svg" data-type="color" role="presentation" aria-hidden="true" aria-label="">
    <g>
        <path d="M221.4 0c5.25 3 4.87 8.16 4.68 13.06-.13 3.41.65 5.88 4 7.35a4.32 4.32 0 0 0 4.46-.1 74 74 0 0 1 7.27-4.15c4-1.91 7.4-1.18 9.71 2.59q7.17 11.73 13.75 23.82c2 3.78.85 7.19-2.77 9.7-1.75 1.2-3.66 2.16-5.49 3.25-5.36 3.19-5.27 8.54.18 11.69 11 6.37 11.42 7.84 5 18.94-3.19 5.52-6.32 11.09-9.62 16.55-3.09 5.12-6.86 6-12.14 3-1.63-.9-3.23-1.85-4.86-2.75-4.93-2.74-9.35-.2-9.48 5.42a68 68 0 0 1-.37 7.55c-.59 4.6-3 7-7.63 7.09q-13 .3-25.93 0c-5.12-.11-7.67-3-7.82-8.11-.06-1.86-.07-3.73 0-5.59.08-2.59 0-4.76-2.84-6.35s-4.89-1.43-7.62.22c-10.73 6.47-12.46 6-18.66-4.75-3.2-5.52-6.45-11-9.55-16.59s-2.24-9 3.26-12.3c1.59-1 3.22-1.86 4.83-2.8 4.93-2.85 5-8 .19-10.84-12.39-7.37-12.52-7.85-5.37-20.27 3-5.3 6-10.65 9.18-15.87s6.54-5.9 11.78-3.07c1.05.57 2.06 1.22 3.1 1.82 7.62 4.4 11.68 2.1 11.69-6.62 0-1.19.07-2.39 0-3.58A8.39 8.39 0 0 1 188.67 0Zm-42.7 85.23a8.85 8.85 0 0 1 5.09 2.09 37.4 37.4 0 0 0 8.21 4.83c4.89 1.85 6.89 5.2 6.59 10.49-.34 5.78-.06 5.8 5.88 5.8h1.59c5.44 0 5.69 0 5.4-5.49-.28-5.24 1.61-8.68 6.58-10.49a27 27 0 0 0 7.57-4.46c3.82-3 7.53-3.16 11.72-.53 5.4 3.39 5.5 3.23 8.61-2.19.14-.23.27-.47.4-.7 2.75-4.86 2.75-4.86-2.17-7.81-6-3.59-7-5.55-5.85-12.43a26.2 26.2 0 0 0-.2-7.91c-.55-4 .48-7.3 4.19-9.55 6.73-4.07 6.7-4.13 2.57-11.13a2 2 0 0 1-.21-.34c-1-2.75-2.64-3.42-5.08-1.44-5.49 4.45-10.84 4.32-16-.61a4.4 4.4 0 0 0-1.68-1c-7.64-2.48-11.92-7.08-10.4-15.69.43-2.39-1.4-3.16-3.28-2.7-3.19.78-7.21-2.3-9.6 2-.23.41-.07 1-.08 1.58 0 1.19-.07 2.39 0 3.58.29 4.29-1.62 7.11-5.55 8.69a26.6 26.6 0 0 0-7.66 4.2c-4.35 3.73-8.67 3.77-13.45.59-4.44-3-4.58-2.75-7.29 2-.33.57-.65 1.16-1 1.74-2.92 5.17-3.23 4.23 2 7.26 3.44 2 6.82 4 6.5 8.65s-.17 9.54 0 14.32c.1 3.07-1.37 5.27-4 6.89C161 80 161.06 80 165.43 87.2a3 3 0 0 1 .19.35c1.08 2.39 2.58 2.59 4.75 1.2 2.56-1.62 5.08-3.47 8.33-3.52" fill="#ffffff" data-color="1"></path>
        <path d="M257.69 177.72c.28 1.85 1.68 2.57 2.66 3.55Q284.17 205.15 308 229a32 32 0 0 1 3 3.2 7.24 7.24 0 0 1-.52 9.8 7.15 7.15 0 0 1-9.48.22 34 34 0 0 1-3.2-3q-29.19-29.22-58.35-58.48a10.29 10.29 0 0 0-8.06-3.29c-27.94.11-55.88.06-83.82.07-8.33 0-10 1.69-10 10.08 0 22 .07 43.91-.07 65.86 0 3.72 1 5.46 4.93 5.06a64 64 0 0 1 8 0c7.92.21 14.18 3.57 18.11 10.46 1.44 2.52 3.08 3.16 5.71 3.15q30.74-.11 61.47 0c7 0 10.71 2.67 10.58 7.49-.13 4.66-3.78 7.19-10.53 7.2-19.83 0-39.66.09-59.48-.07-3.82 0-5.13 1.1-5 5 .32 8.39-.88 7.57 7.43 7.59h51.09c3.78 0 7.3.64 9 4.57 2.06 4.85-1.14 9.62-6.88 10a118 118 0 0 1-12.76.07 6.12 6.12 0 0 0-6 3c-1.44 2.24-3.18 4.27-4.75 6.42-.52.72-1.52 1.39-1.07 2.4s1.64.66 2.51.66c6.25 0 12.51 0 18.76.05a23 23 0 0 1 4.75.43c4.17.92 6.26 3.73 5.93 7.68-.3 3.54-3 6.17-6.94 6.46-3.18.22-6.39.1-9.58.1h-27.54c-3.9 0-7.95.23-10.06-4s.19-7.35 2.64-10.5c3-3.87 5.87-7.84 9.47-12.68h-18.63c-8.2 0-7.24-.68-7.27 7.28 0 9.31.13 18.63-.08 27.94-.08 3.56 1.18 4.71 4.62 4.54a39.7 39.7 0 0 1 9.55.32c3.6.69 5.81 2.84 6.25 6.34 1.95 15.56-4.71 29.46-20.19 34.18a28 28 0 0 1-8.29.94c-44.84 0-89.69-.17-134.52.08-15.41.09-31.2-12.2-28.38-35 .45-3.67 2.66-6.11 6.47-6.55a83 83 0 0 1 8.35-.39c5.57-.07 5.58 0 5.58-5.45 0-22 .44-43.92-.15-65.86-.39-14.87 10.34-24.34 24-24 24.47.53 49 .08 73.44.23 3.8 0 5-1 5-4.93-.17-22.21.29-44.44-.24-66.65-.28-12 6.36-23.77 23.18-24.06h169.63a42.6 42.6 0 0 1 10.69 1c9.3 2.39 15.38 10.33 15.54 21.6.3 20.62.09 41.25.07 61.87a13 13 0 0 1-.39 2.76c-.86 4-4 6.59-7.55 6.23a7.12 7.12 0 0 1-6.56-7.3c-.15-7.72-.07-15.44-.07-23.15v-39.92c0-5.87-2.46-8.42-8.19-8.44-19.82-.07-39.65 0-59.47 0-.68-.08-1.28.04-1.99.11m-142.85 96c.24 1.42 1.52 2.07 2.41 3 8.06 8.11 16.22 16.13 24.23 24.3 3.46 3.54 3.47 7.6.42 10.63s-6.69 2.84-10.37-.25c-1-.85-1.92-1.83-2.86-2.77-10.82-10.81-21.67-21.63-32.4-32.48a9 9 0 0 0-7-3c-15.29.12-30.59 0-45.88.07-6.09 0-8 1.83-8 7.79-.06 22.74 0 45.49-.07 68.23 0 3.18.93 4.52 4.32 4.51q56.46-.12 112.92 0c3.09 0 4.22-1.1 4.21-4.2-.08-23 0-46-.09-69 0-5.3-2-7.23-7.29-7.27-10.78-.08-21.55 0-32.32 0-.75-.11-1.62-.38-2.23.48Zm-18.6 94.57H19.63c-5.07 0-5.74 1-3.42 5.48a16.6 16.6 0 0 0 2.61 3.49c3.22 3.46 7.46 3.62 11.8 3.62h130.87c1.46 0 2.93 0 4.39-.16 4.5-.34 7.68-2.8 9.83-6.59 2.62-4.59 1.88-5.82-3.26-5.82Z" fill="#ffffff" data-color="1"></path>
        <path d="M342.47 339c-.91 1.37-.48 2.86-.49 4.26v53.87a32 32 0 0 1-.57 6.33 6.74 6.74 0 0 1-7.22 5.55c-3.51-.15-6.06-2.6-6.73-6.22-.47-2.52 1.27-6-1.15-7.37-1.85-1.06-4.9.05-7.41.05h-44.29c-13.55 0-22.21-8.64-22.24-22.19q-.08-39.49 0-79c0-13.38 8.87-22.16 22.35-22.22 14.36-.07 28.73 0 43.09 0 15.31 0 23.74 8.13 24.14 23.43.18 6.78.15 13.57 0 20.34-.1 3.17 1.05 4.17 4.19 4.17 11.56-.14 23.14-.09 34.71 0 9.64 0 15.46 5.66 15.51 15.35.11 21.41 0 42.82 0 64.23a15.3 15.3 0 0 1-.3 3.17c-.87 4.21-3.63 6.53-7.42 6.35s-6.55-2.8-6.82-7a80 80 0 0 1 0-14.34c.87-7.29-1.75-12.42-7.09-17.34-10.07-9.27-19.48-19.26-29.19-28.92-.9-1-1.54-2.31-3.07-2.5m-74.55-48.75a17.4 17.4 0 0 0-.85 2.69c0 19.16 0 38.31-.07 57.47 0 2.8 1.59 3.25 3.87 3.24h52.69c2.65 0 3.83-.82 3.81-3.67-.08-18.49 0-37-.08-55.48 0-5.46-2.45-7.72-7.89-7.75-10.37-.06-20.75 0-31.13 0-.93 0-2.16-.51-2.87 1.12 7.91 7.94 15.89 15.91 23.83 23.93a27.4 27.4 0 0 1 3.92 4.5 6.65 6.65 0 0 1-.83 8.78c-2.49 2.57-5.55 3.12-8.7 1.16a23.5 23.5 0 0 1-4-3.31c-7.73-7.69-15.47-15.39-23.12-23.17-2.74-2.76-5.29-5.84-8.58-9.5Zm29.75 78.07h-26.69c-1.51 0-3.22-.41-3.87 1.8-1.84 6.22 1.26 10.69 7.77 10.72q22.11.12 44.21 0c6.12 0 8.14-2.39 8.29-8.62.07-2.87-.79-4-3.82-4-8.63.21-17.26.11-25.89.11Zm83-12.32 1-.32v-18.52c0-1.57-.76-2.56-2.37-2.58q-8.52-.09-17.06 0c-1.82 0-2.16.86-.87 2.16q9.63 9.64 19.31 19.26Z" fill="#ffffff" data-color="1"></path>
        <path d="M375.76 189.12v99c0 8.41-2.14 12-7.14 12s-7.48-3.86-7.48-12.33v-126.5c0-23.81-.06-47.62 0-71.43 0-9.23-3.88-15.78-12.27-19.65-3.13-1.44-6.45-1.44-9.78-1.44H284a17.9 17.9 0 0 1-5.92-.65c-3.42-1.16-5.23-3.51-5.07-7.2s2.22-5.62 5.47-6.5a16.6 16.6 0 0 1 4.35-.33h56.26c22 0 36.59 14.61 36.62 36.48q.1 49.28.05 98.55" fill="#ffffff" data-color="1"></path>
        <path d="M91.55 26.89h23.52c5.17 0 8.07 2.4 8.37 6.59.31 4.43-2.32 7.58-7.62 7.76-10.21.36-20.45.21-30.67.25H71.6c-7.4 0-9 1.58-9 8.83v14.74a21.7 21.7 0 0 1-.47 4.33c-.84 3.74-3.3 5.69-7.08 5.79a6.58 6.58 0 0 1-6.81-6c-.49-8.6-1.24-17.32.34-25.82 1.82-9.9 10.19-16.24 20.26-16.46h22.71Z" fill="#ffffff" data-color="1"></path>
        <path d="M55.14 94.85c16.09.62 30.4 5.76 42.29 17 2.22 2.09 3.88 4.43 3.19 7.7-1.26 5.93-7.69 7.56-12.76 3-5.65-5-11.86-9.07-19.18-11.05-16.74-4.53-31.83-1.29-45 10.13-1.41 1.23-2.77 2.56-4.65 3-3.47.75-6.38-.17-8.19-3.38-1.93-3.42-1-6.42 1.72-9 11.87-11.44 26.21-16.83 42.58-17.4" fill="#ffffff" data-color="1"></path>
        <path d="M300.71 127.93c0 5.7.09 10.22 0 14.72s-3.14 7.59-7.05 7.59-6.95-3.06-7-7.56c-.12-7.17-.2-14.34 0-21.5.14-5.23-1.51-9-6.68-10.91a16.9 16.9 0 0 1-5.1-3 6.44 6.44 0 0 1-1.48-8.63c1.67-3 4.51-4.61 7.7-3.51 8.49 2.92 16.14 7.14 18.92 16.6 1.63 5.67.27 11.59.69 16.2" fill="#ffffff" data-color="1"></path>
        <path d="M54.24 122.08c9.86.47 17.7 3.32 24.26 9.29 3.6 3.28 4.1 7.37 1.41 10.61s-6.71 3.79-10.28.67a21.77 21.77 0 0 0-28.81-.08c-3.78 3.22-7.92 2.56-10.54-.8-2.48-3.16-1.91-7.05 1.49-10.29 5.98-5.7 15.34-9.43 22.47-9.4" fill="#ffffff" data-color="1"></path>
        <path d="M62.6 200v14.65a21.4 21.4 0 0 1-.55 4.72 7.26 7.26 0 0 1-7.08 5.82 7 7 0 0 1-6.82-6.61q-.36-17.51 0-35a6.67 6.67 0 0 1 6.64-6.58c3.77-.17 6.55 1.86 7.32 5.87 1.17 6.03.16 12.13.49 17.13" fill="#ffffff" data-color="1"></path>
        <path d="M222.23 368.3c-3.31 0-6.63.12-9.94 0-4.33-.2-7.24-2.9-7.54-6.74-.29-3.69 2.34-7 6.69-7.49a98 98 0 0 1 21.4 0c4.42.49 6.71 3.61 6.45 7.62s-3 6.44-7.52 6.62c-3.18.1-6.36 0-9.54-.01" fill="#ffffff" data-color="1"></path>
        <path d="M62.23 156.79a7.13 7.13 0 0 1-7.13 7.05 7.31 7.31 0 0 1-7.1-7.17 7.11 7.11 0 0 1 14.21.12Z" fill="#ffffff" data-color="1"></path>
        <path d="M225.7 61.43a20.65 20.65 0 1 1-41.3-.22 20.65 20.65 0 1 1 41.3.22m-14.37.11a6.17 6.17 0 0 0-5.88-6.27 6 6 0 0 0-6.58 5.9 6.35 6.35 0 0 0 5.81 6.39 6.5 6.5 0 0 0 6.65-6.02" fill="#ffffff" data-color="1"></path>
    </g>
</svg>